<svg xmlns="http://www.w3.org/2000/svg" width="1290" height="348" viewBox="0 0 1290 348" role="img" aria-label="NexusPoint Wrapped Nexus logo">
<title>NexusPoint, Wrapped Nexus</title>
<desc>Reconstructed outlines of the approved raster concept. The central connection point uses portfolio blue #02A1E1. All lettering is custom outlined geometry.</desc>

<g transform="translate(32 32)"><g id="wrapped-nexus-symbol" transform="translate(-238 -310)" fill="#02040A" fill-rule="evenodd">
<path d="M443,463.315 C441.849,462.425,442.62,458.422,442.648,457 C442.759,451.413,442.802,445.465,441.47,440 C438.117,426.237,430.993,413.531,420,404.323 C409.207,395.282,396.065,389.783,382,388.824 C373.986,388.277,365.967,390.382,358,389.316 C346.345,387.755,336.877,380.172,327,374.507 C303.786,361.193,280.769,345.657,259.72,329 C254.875,325.166,249.968,321.316,245,317.646 C243.659,316.655,239.706,314.795,240.669,313 C242.697,309.221,249.592,310.447,253,310.433 L291,310.453 C304.238,310.454,321.2,308.825,334,310.909 C340.925,312.036,354.281,321.631,361,325.317 C374.114,332.512,386.822,340.465,400,347.432 C412.956,354.282,427.913,363.238,436.063,376 C446.461,392.282,456.738,410.663,454.183,431 C453.148,439.235,451.225,446.303,448.273,454 C447.484,456.059,446.3,458.531,445,460.323 L443,463.315 Z"/>
<path d="M529,582.05 C521.854,578.01,515.616,571.532,509,566.637 C491.846,553.948,475.192,539.922,457,528.721 C450.862,524.942,445.198,520.395,439,516.737 C437.207,515.678,433.706,514.361,433.481,512 C432.952,506.437,437.67,504.162,441,500.557 C447.287,493.752,453.509,486.345,457.562,478 C467.866,456.784,466.907,437.109,466.902,414 L466.852,336 L466.874,318 C466.874,316.561,465.946,312.057,468,311.825 C480.841,310.371,499.515,311.864,513,311.839 C516.395,311.832,526.839,310.75,529,312.846 C529.996,313.811,529.51,322.237,529.493,324 C529.384,335.331,529.484,346.669,529.506,358 C529.595,402.663,529.704,447.338,529.496,492 L529.496,552 L529.45,572 L529.448,579 C529.426,580.027,529,582.05,529,582.05 Z"/>
<path d="M299,591.509 L253,591.525 C251.195,591.531,238.552,591.74,238.094,591 C237.452,589.964,238.066,581.734,238.058,580 L238.017,548 C238.017,508.668,237.967,469.332,238.115,430 C238.215,403.336,237.782,376.662,238.061,350 C238.128,343.666,237.963,337.336,238.085,331 C238.106,329.949,237.58,325.795,239,325.795 C240.073,325.795,243.076,328.993,244,329.714 C248.951,333.584,253.859,337.616,259,341.217 C269.974,348.905,280.545,357.45,292,364.376 C299.07,368.65,306.361,373.184,313.08,378 C318.23,381.691,323.687,385.12,329,388.596 C330.979,389.891,333.971,391.125,333.657,394 C333.197,398.221,326.733,402.327,324,405.284 C317.298,412.535,311.884,421.144,307.585,430 C297.424,450.932,299.633,475.403,299.791,498 C299.936,518.662,299.926,539.336,299.849,560 L299.855,581 L299.79,588 C299.777,589.199,299,591.509,299,591.509 Z"/>
<path d="M524.58,592 C522.022,593.767,515.113,592.507,512,592.505 L477,592.517 L446,592.514 C440.996,592.536,434.875,593.491,430,592.303 C422.659,590.515,402.778,577.116,395,572.635 C368.716,557.494,337.858,544.25,322.968,516 C313.328,497.709,309.834,476.962,316.241,457 C317.705,452.437,319.754,448.066,322.289,444 C322.628,443.455,324.453,439.972,325,439.972 C326.118,439.972,325.107,446.813,325.05,448 C324.775,453.695,324.946,459.425,326.197,465 C330.011,481.99,340.541,496.16,355,505.578 C377.446,520.198,395.173,510.172,417,516.916 C426.181,519.753,444.462,532.777,453,538.655 C477.583,555.581,501.635,572.881,524.58,592 Z"/>
<circle id="nexus-point" cx="383.5" cy="452" r="39.25" fill="#02A1E1"/>
</g></g>
<g transform="translate(379 104)"><g id="outlined-wordmark" transform="translate(-585 -383)" fill="#02040A" fill-rule="evenodd">
<path d="M1293,412.208 C1273.612,416.742,1266.082,388.875,1284.442,383 C1293.919,379.968,1302.867,386.658,1304.17,396 C1304.856,400.917,1302.592,405.716,1299,408.957 C1297.517,410.295,1295.772,411.022,1294,411.849 L1293,412.208 Z M668,469.88 C669.769,467.587,668.734,456.413,668.718,453 C668.643,437.671,668.981,422.328,668.758,407 L668.708,393 C668.722,391.915,668.255,389.119,669,388.282 C670.028,387.128,674.576,387.944,676,387.948 C682.309,387.966,688.701,387.593,695,387.928 C696.211,387.992,695.883,390.332,695.9,391 L695.893,402 C695.952,416.638,696.358,431.372,695.884,446 C695.302,463.977,696.262,482.013,695.861,500 C695.799,502.785,696.492,516.675,695,517.507 C693.616,518.278,689.619,517.563,688,517.56 C683.712,517.553,670.233,518.619,667,517.248 C666.166,516.895,664.855,513.839,664.33,513 C661.788,508.943,658.909,505.078,656.388,501 C646.733,485.381,635.04,470.861,625.811,455 C622.794,449.815,618.872,445.169,615.845,440 C615.394,439.23,612.855,434.491,612,434.491 C610.896,434.491,611.287,439.273,611.285,440 L611.295,460 L611.249,504 L611.218,514 C611.22,514.51,611.539,517.061,611,517.298 C609.123,518.123,606.021,517.539,604,517.537 C599.106,517.53,589.353,518.863,585,517.485 C583.67,517.064,584.314,511.284,584.308,510 L584.304,488 C584.558,463.673,584.291,439.33,584.291,415 L584.276,396 C584.252,393.749,583.54,389.834,584.859,388 C585.302,387.385,590.14,387.893,591,387.893 L608,387.938 C609.678,387.934,612.566,387.317,614,388.425 C616.719,390.527,626.311,407.036,628.744,411 C634.829,420.911,642.19,430.092,648.255,440 C654.372,449.993,660.755,460.644,668,469.88 Z M1106,517.242 C1100.197,518.96,1092.069,517.548,1086,517.546 C1084.901,517.546,1079.874,518.168,1079.371,517 C1078.659,515.351,1079.309,511.832,1079.262,510 C1079.084,503.003,1079.225,496,1079.169,489 C1078.981,465.674,1079.161,442.327,1079.261,419 L1079.238,397 C1079.264,394.457,1078.504,390.067,1079.951,388 C1080.235,387.595,1083.458,387.927,1084,387.927 L1095,387.901 C1110.239,387.939,1127.597,385.579,1142.364,390 C1163.147,396.222,1175.552,416.518,1171.411,438 C1170.332,443.6,1168.643,449.696,1165,454.259 C1155.68,465.933,1143.103,472.162,1128,472.161 L1112,472.078 C1110.714,472.083,1107.085,471.551,1106.442,473 C1105.552,475.006,1106.292,478.81,1106.272,481 L1106.255,502 L1106.193,512 L1106.188,516 L1106,517.242 Z M1452,519.005 C1447.358,519.397,1442.45,518.967,1438,517.634 C1411.959,509.833,1417.199,481.694,1417.386,460 C1417.416,456.555,1418.037,452.377,1417.39,449 C1416.744,445.634,1405.194,448.81,1404.445,447 C1403.885,445.646,1403.939,426.962,1404.335,425 C1404.881,422.301,1414.735,424.964,1417,423.469 C1417.889,422.882,1417.424,419.932,1417.429,419 L1417.437,404 C1417.452,402.985,1416.877,398.864,1418,398.42 C1420.654,397.372,1433.374,398.33,1437,398.357 C1438.018,398.365,1442.059,397.838,1442.476,399 C1443.867,402.882,1442.477,412.5,1442.565,417 C1442.587,418.126,1442.022,422.728,1443,423.357 C1445.998,425.286,1453.463,423.818,1457,423.819 C1458.501,423.819,1461.365,423.065,1461.895,425 C1462.94,428.816,1462.024,437.751,1461.892,442 C1461.857,443.143,1462.316,447.071,1461,447.469 C1457.068,448.658,1451.131,447.458,1447,447.535 C1445.513,447.563,1443.03,447.021,1442.651,449 C1441.18,456.683,1442.564,471.6,1442.618,480 C1442.647,484.538,1442.111,489.453,1445.511,493 C1448.117,495.719,1453.391,495.702,1456.779,495 C1457.749,494.799,1461.133,493.815,1461.689,495 C1462.569,496.876,1462.989,515.052,1462.406,517 C1462.017,518.298,1456.061,518.556,1455,518.651 L1452,519.005 Z M1132.786,446 C1144.717,442.274,1149.383,425.997,1139,417.482 C1132.568,412.208,1123.744,413.462,1116,413.503 C1113.369,413.516,1109.485,412.783,1107,413.67 C1105.573,414.18,1106.32,419.742,1106.302,421 L1106.301,440 C1106.301,441.353,1105.558,445.958,1107,446.584 C1110.061,447.914,1120.239,446.75,1124,446.738 C1125.996,446.731,1128.009,446.792,1130,446.63 C1130.949,446.553,1132.786,446,1132.786,446 Z M754,520.023 C745.92,520.127,738.353,518.307,731,515.193 C687.327,496.693,699.816,423.679,750,421.566 C775.794,420.481,793.112,435.633,798.685,460 C799.94,465.49,800.766,473.522,799.093,479 C798.898,479.638,795.561,479.337,795,479.343 L784,479.41 L744,479.433 C742.348,479.439,731.763,479.221,731.302,480 C730.5,481.356,732.295,484.496,733,485.709 C735.936,490.764,741.207,495.253,747,496.483 C753.923,497.953,760.933,497.481,767,493.549 C768.137,492.813,773.959,486.75,774,486.746 C776.784,486.442,781.569,490.201,784,491.505 C785.45,492.283,795.191,497.237,795.191,498 C795.191,499.726,791.718,502.744,790.654,504 C784.824,510.877,775.986,516.857,767,518.435 C763.965,518.968,761.099,519.45,758,519.731 L754,520.023 Z M1045,519.004 C1031.613,522.378,1016.164,518.908,1005,511.244 C1001.648,508.943,998.717,505.308,996.445,502 C996.087,501.48,994.108,499.761,995.049,499 C997.061,497.373,1012.262,487.644,1014,487.452 C1015.891,487.243,1018.518,492.098,1020,493.275 C1025.916,497.978,1043.873,502.576,1046.571,492 C1048.744,483.487,1033.473,481.325,1028,480.119 C1019.574,478.262,1006.189,474.491,1001.861,466 C991.922,446.503,1000.944,428.014,1022,422.777 C1035.342,419.459,1051.173,421.846,1062,430.53 C1063.843,432.008,1069.908,437.576,1069.804,440 C1069.753,441.204,1066.919,442.671,1066,443.176 C1061.885,445.44,1058.01,448.144,1054,450.585 C1052.927,451.239,1051.339,452.859,1050,452.375 C1048.747,451.922,1047.086,448.539,1046,447.532 C1043.192,444.926,1039.756,443.642,1036,443.199 C1031.378,442.655,1021.312,444.037,1022.774,451 C1024.127,457.439,1034.76,458.77,1040,459.934 C1051.189,462.421,1066.13,466.822,1070.296,479 C1073.891,489.51,1072.372,502.276,1063.679,510 C1060.279,513.02,1056.34,515.782,1052,517.201 C1050.006,517.852,1048.033,518.184,1046,518.675 L1045,519.004 Z M1229,519.133 C1222.237,520.529,1214.681,520.205,1208,518.645 C1200.902,516.987,1195.11,514.098,1189.106,510 C1168.666,496.047,1166.643,466.497,1176.786,446 C1182.845,433.757,1196.178,425.737,1209,422.789 C1239.509,415.773,1268.876,438.932,1269.361,470 C1269.612,486.052,1262.723,499.957,1250.358,510 C1246.52,513.117,1241.655,515.518,1237,517.087 C1235.413,517.623,1233.668,518.219,1232,518.471 L1229,519.133 Z M1401,517.285 C1395.165,518.602,1387.99,517.56,1382,517.56 C1380.965,517.561,1375.882,518.158,1375.527,517 C1374.44,513.458,1375.557,507.75,1375.511,504 C1375.376,493.002,1375.621,481.999,1375.565,471 C1375.522,462.539,1373.754,452.593,1365,448.759 C1350.729,442.508,1338.726,454.213,1337.822,468 C1337.063,479.56,1337.771,491.414,1337.775,503 C1337.775,505.701,1338.672,515.01,1337.71,517 C1337.184,518.09,1333.037,517.521,1332,517.526 C1326.944,517.551,1317.584,518.855,1313,517.526 C1311.392,517.06,1312.065,514.371,1312.077,513 L1312.084,497 L1312.113,443 C1312.114,439.401,1311.078,426.155,1312.967,424 C1313.395,423.512,1317.256,423.912,1318,423.896 L1332,423.809 C1333.187,423.818,1336.07,423.356,1337,424.284 C1338.34,425.623,1337.246,431.141,1337.277,433 C1337.285,433.508,1337.028,436.129,1338,436.129 C1339.091,436.129,1340.424,433.026,1341,432.253 C1343.204,429.297,1346.574,426.225,1350,424.769 C1366.361,417.815,1387.589,423.635,1396,440.256 C1403.963,455.991,1401.265,474.891,1401.299,492 L1401.299,509 L1401.255,515 L1401,517.285 Z M897,517.394 C889.744,517.968,882.279,517.563,875,517.551 C872.376,517.546,868.453,518.251,866,517.258 C864.761,516.757,863.053,513.138,862.278,512 C858.743,506.812,854.64,501.977,851,496.846 C849.899,495.294,847.023,489.899,845,489.899 C843.918,489.899,840.953,495.09,840.253,496 C836.233,501.224,832.389,506.66,828.521,512 C827.697,513.139,826.239,516.571,825,517.12 C821.333,518.745,806.806,517.537,802,517.527 L796,517.488 C795.906,517.485,794.389,517.608,794.386,517 C794.379,515.818,799.46,510.315,800.37,509 C806.964,499.472,813.984,490.076,821,480.847 C822.319,479.113,829.673,470.423,829.332,469 C828.516,465.589,823.803,461.87,821.824,459 C816.269,450.946,810.178,442.976,804,435.387 C802.81,433.926,795.904,424.904,796.51,424 L809,423.85 C811.92,423.847,825.405,422.876,827,424.392 C832.279,429.41,835.968,437.144,840.29,443 C841.176,444.2,843.588,449.222,845,449.503 C846.389,449.78,847.326,447.325,848,446.436 C850.727,442.845,853.688,438.892,855.954,435 C858.008,431.473,861.026,426.898,864,424.096 C864.858,423.288,867.898,423.859,869,423.856 L882,423.869 C883.762,423.873,892.936,423.318,894,424.153 C894.895,424.854,892.916,426.491,892.539,427 L886.676,435 C881.008,443.056,874.193,450.625,869.031,459 C867.104,462.127,862.472,465.496,861.46,469 C860.933,470.825,865.857,475.736,867,477.211 C873.119,485.108,878.988,493.211,885.219,501 C888.098,504.599,890.679,508.446,893.59,512 L896,515.146 C896.467,515.82,897,517.394,897,517.394 Z M945,519.248 C940.436,520.041,935.59,519.912,931,519.383 C926.024,518.809,921.133,516.357,917,513.673 C898.318,501.545,900.595,478.426,900.572,459 L900.58,432 C900.571,430.863,900.242,424.055,901,423.916 C906.904,422.831,913.984,423.796,920,423.828 C921,423.833,925.393,423.284,926,424.139 C927.222,425.863,926.394,436.341,926.386,439 L926.435,451 C926.512,465.924,921.978,495.274,945,494.698 C954.728,494.454,962.398,486.598,963.474,477 C965.404,459.785,962.453,442.225,963.849,425 C964.005,423.073,967.817,423.783,969,423.793 L984,423.788 C984.675,423.789,988.676,423.412,989.009,424 C991.054,427.617,989.513,442.15,989.514,447 C989.515,462.995,989.361,479.007,989.552,495 C989.607,499.562,990.673,513.41,989.469,517 C989.11,518.072,984.912,517.523,984,517.523 C979.052,517.525,969.429,518.864,965,517.484 C963.583,517.042,964.256,511.361,964.206,510 C964.196,509.721,964.507,506.974,964,506.974 C962.79,506.974,957.061,513.845,955,515.002 C953.033,516.105,951.133,517.322,949,518.083 L945,519.248 Z M1301,517.499 L1282,517.55 C1280.796,517.547,1276.768,518.161,1276.007,517 C1275.134,515.668,1275.913,503.242,1275.944,501 C1276.132,487.341,1276.103,473.66,1275.982,460 L1275.948,432 C1275.958,430.851,1275.107,424.091,1277,423.913 C1282.895,423.358,1289.077,423.812,1295,423.789 C1296.084,423.785,1300.669,423.178,1301.352,424 C1302.711,425.633,1302,437.039,1302.008,440 L1301.944,484 L1301.982,506 L1301.874,514 C1301.867,515.202,1301,517.499,1301,517.499 Z M773.603,460 C773.163,445.498,751.159,441.026,741,447.353 C738.542,448.884,730.088,456.73,731.26,460 C731.657,461.109,742.251,460.761,744,460.763 L764,460.792 L771,460.735 C771.901,460.71,773.603,460,773.603,460 Z M1222.144,495 C1252.258,490.543,1248.91,445.752,1219,446.938 C1203.437,447.555,1193.239,463.317,1197.399,478 C1199.285,484.656,1204.489,490.935,1211,493.524 C1213.263,494.424,1215.564,494.849,1218,495.101 C1219.374,495.243,1222.144,495,1222.144,495 Z"/>
</g></g>
</svg>
